<?xml version="1.0" standalone="no"?><!DOCTYPE svg PUBLIC "-//W3C//DTD SVG 1.1//EN" "http://www.w3.org/Graphics/SVG/1.1/DTD/svg11.dtd"><svg t="1652113506978" class="icon" viewBox="0 0 1024 1024" version="1.1" xmlns="http://www.w3.org/2000/svg" p-id="12147" xmlns:xlink="http://www.w3.org/1999/xlink" width="128" height="128"><defs><style type="text/css">@font-face { font-family: feedback-iconfont; src: url("//at.alicdn.com/t/font_1031158_u69w8yhxdu.woff2?t=1630033759944") format("woff2"), url("//at.alicdn.com/t/font_1031158_u69w8yhxdu.woff?t=1630033759944") format("woff"), url("//at.alicdn.com/t/font_1031158_u69w8yhxdu.ttf?t=1630033759944") format("truetype"); }
</style></defs><path d="M896 213.333333a85.333333 85.333333 0 0 1 85.333333 85.333334v512a85.333333 85.333333 0 0 1-85.333333 85.333333H128a85.333333 85.333333 0 0 1-85.333333-85.333333V213.333333a85.333333 85.333333 0 0 1 85.333333-85.333333h256c47.786667 0 78.208 20.266667 108.757333 58.837333 2.048 2.56 11.136 14.378667 13.354667 17.152 6.741333 8.32 8.106667 9.344 5.973333 9.344H896z m0 597.333334V298.666667h-384.213333c-30.677333-0.170667-50.602667-14.506667-72.106667-41.088-2.944-3.669333-12.373333-15.914667-13.781333-17.749334C409.898667 219.733333 400.384 213.333333 384 213.333333H128v597.333334h768z m-384-316.330667l97.834667-97.834667 60.330666 60.330667L572.330667 554.666667l97.834666 97.834666-60.330666 60.330667L512 614.997333l-97.834667 97.834667-60.330666-60.330667L451.669333 554.666667l-97.834666-97.834667 60.330666-60.330667L512 494.336z" p-id="12148" fill="#8a8a8a"></path></svg>